<svg xmlns="http://www.w3.org/2000/svg" xmlns:xlink="http://www.w3.org/1999/xlink" width="500" zoomAndPan="magnify" viewBox="0 0 375 374.999991" height="500" preserveAspectRatio="xMidYMid meet" version="1.0"><defs><g/><clipPath id="0624e32783"><path d="M 312 79 L 320.417969 79 L 320.417969 297 L 312 297 Z M 312 79 " clip-rule="nonzero"/></clipPath><clipPath id="83b5795087"><path d="M 54.917969 79 L 63 79 L 63 297 L 54.917969 297 Z M 54.917969 79 " clip-rule="nonzero"/></clipPath><clipPath id="f18da932a5"><path d="M 79 54.917969 L 297 54.917969 L 297 63 L 79 63 Z M 79 54.917969 " clip-rule="nonzero"/></clipPath><clipPath id="6753627dfe"><path d="M 79 312 L 297 312 L 297 320.417969 L 79 320.417969 Z M 79 312 " clip-rule="nonzero"/></clipPath><clipPath id="506c5a9755"><path d="M 296 54.917969 L 320.417969 54.917969 L 320.417969 80 L 296 80 Z M 296 54.917969 " clip-rule="nonzero"/></clipPath><clipPath id="87dff3d981"><path d="M 54.917969 54.917969 L 80 54.917969 L 80 80 L 54.917969 80 Z M 54.917969 54.917969 " clip-rule="nonzero"/></clipPath><clipPath id="969161f616"><path d="M 296 296 L 320.417969 296 L 320.417969 320.417969 L 296 320.417969 Z M 296 296 " clip-rule="nonzero"/></clipPath><clipPath id="2bc777cdf4"><path d="M 54.917969 296 L 80 296 L 80 320.417969 L 54.917969 320.417969 Z M 54.917969 296 " clip-rule="nonzero"/></clipPath><clipPath id="c29eeade31"><path d="M 199 199 L 359 199 L 359 359 L 199 359 Z M 199 199 " clip-rule="nonzero"/></clipPath><clipPath id="611aefea35"><path d="M 187.496094 374.992188 L -0.238281 187.257812 L 187.496094 -0.480469 L 375.234375 187.257812 Z M 187.496094 374.992188 " clip-rule="nonzero"/></clipPath><clipPath id="f4695c4b22"><path d="M 187.496094 0 L 375.234375 187.738281 L 187.496094 375.476562 L -0.238281 187.738281 Z M 187.496094 0 " clip-rule="nonzero"/></clipPath><clipPath id="9f8cc2a1cb"><path d="M 16 17 L 176 17 L 176 177 L 16 177 Z M 16 17 " clip-rule="nonzero"/></clipPath><clipPath id="5ce74f5199"><path d="M 187.496094 374.992188 L -0.238281 187.257812 L 187.496094 -0.480469 L 375.234375 187.257812 Z M 187.496094 374.992188 " clip-rule="nonzero"/></clipPath><clipPath id="95bc62a331"><path d="M 187.496094 0 L 375.234375 187.738281 L 187.496094 375.476562 L -0.238281 187.738281 Z M 187.496094 0 " clip-rule="nonzero"/></clipPath><clipPath id="ac826705c1"><path d="M 199 17 L 359 17 L 359 177 L 199 177 Z M 199 17 " clip-rule="nonzero"/></clipPath><clipPath id="02d1a6f5d3"><path d="M 187.496094 374.992188 L -0.238281 187.257812 L 187.496094 -0.480469 L 375.234375 187.257812 Z M 187.496094 374.992188 " clip-rule="nonzero"/></clipPath><clipPath id="3f24242909"><path d="M 187.496094 0 L 375.234375 187.738281 L 187.496094 375.476562 L -0.238281 187.738281 Z M 187.496094 0 " clip-rule="nonzero"/></clipPath><clipPath id="7f8462c496"><path d="M 16 199 L 176 199 L 176 359 L 16 359 Z M 16 199 " clip-rule="nonzero"/></clipPath><clipPath id="96c1fdb3c1"><path d="M 187.496094 374.992188 L -0.238281 187.257812 L 187.496094 -0.480469 L 375.234375 187.257812 Z M 187.496094 374.992188 " clip-rule="nonzero"/></clipPath><clipPath id="1495408c1a"><path d="M 187.496094 0 L 375.234375 187.738281 L 187.496094 375.476562 L -0.238281 187.738281 Z M 187.496094 0 " clip-rule="nonzero"/></clipPath><clipPath id="e6eed72c86"><path d="M 352 170 L 375 170 L 375 205 L 352 205 Z M 352 170 " clip-rule="nonzero"/></clipPath><clipPath id="d8a9defa5a"><path d="M 187.496094 374.992188 L -0.238281 187.257812 L 187.496094 -0.480469 L 375.234375 187.257812 Z M 187.496094 374.992188 " clip-rule="nonzero"/></clipPath><clipPath id="a9071f840e"><path d="M 187.496094 0 L 375.234375 187.738281 L 187.496094 375.476562 L -0.238281 187.738281 Z M 187.496094 0 " clip-rule="nonzero"/></clipPath><clipPath id="7a98ee4ce9"><path d="M 170 0 L 205 0 L 205 23 L 170 23 Z M 170 0 " clip-rule="nonzero"/></clipPath><clipPath id="0547072603"><path d="M 187.496094 374.992188 L -0.238281 187.257812 L 187.496094 -0.480469 L 375.234375 187.257812 Z M 187.496094 374.992188 " clip-rule="nonzero"/></clipPath><clipPath id="0c3bbc46dd"><path d="M 187.496094 0 L 375.234375 187.738281 L 187.496094 375.476562 L -0.238281 187.738281 Z M 187.496094 0 " clip-rule="nonzero"/></clipPath><clipPath id="4d0387a626"><path d="M 170 352 L 205 352 L 205 375 L 170 375 Z M 170 352 " clip-rule="nonzero"/></clipPath><clipPath id="03c0908886"><path d="M 187.496094 374.992188 L -0.238281 187.257812 L 187.496094 -0.480469 L 375.234375 187.257812 Z M 187.496094 374.992188 " clip-rule="nonzero"/></clipPath><clipPath id="708d238be9"><path d="M 187.496094 0 L 375.234375 187.738281 L 187.496094 375.476562 L -0.238281 187.738281 Z M 187.496094 0 " clip-rule="nonzero"/></clipPath><clipPath id="bb905005db"><path d="M 0 170 L 23 170 L 23 205 L 0 205 Z M 0 170 " clip-rule="nonzero"/></clipPath><clipPath id="4dd6b2129d"><path d="M 187.496094 374.992188 L -0.238281 187.257812 L 187.496094 -0.480469 L 375.234375 187.257812 Z M 187.496094 374.992188 " clip-rule="nonzero"/></clipPath><clipPath id="80a7a4c850"><path d="M 187.496094 0 L 375.234375 187.738281 L 187.496094 375.476562 L -0.238281 187.738281 Z M 187.496094 0 " clip-rule="nonzero"/></clipPath></defs><g clip-path="url(#0624e32783)"><path fill="#00fff5" d="M 312.484375 79.246094 L 320.417969 79.246094 L 320.417969 296.089844 L 312.484375 296.089844 Z M 312.484375 79.246094 " fill-opacity="1" fill-rule="nonzero"/></g><g clip-path="url(#83b5795087)"><path fill="#00fff5" d="M 54.917969 79.246094 L 62.851562 79.246094 L 62.851562 296.089844 L 54.917969 296.089844 Z M 54.917969 79.246094 " fill-opacity="1" fill-rule="nonzero"/></g><g clip-path="url(#f18da932a5)"><path fill="#00fff5" d="M 79.246094 54.917969 L 296.089844 54.917969 L 296.089844 62.851562 L 79.246094 62.851562 Z M 79.246094 54.917969 " fill-opacity="1" fill-rule="nonzero"/></g><g clip-path="url(#6753627dfe)"><path fill="#00fff5" d="M 79.246094 312.484375 L 296.089844 312.484375 L 296.089844 320.417969 L 79.246094 320.417969 Z M 79.246094 312.484375 " fill-opacity="1" fill-rule="nonzero"/></g><g clip-path="url(#506c5a9755)"><path fill="#00fff5" d="M 312.484375 62.851562 L 312.484375 79.246094 L 320.417969 79.246094 L 320.417969 54.917969 L 296.089844 54.917969 L 296.089844 62.851562 Z M 312.484375 62.851562 " fill-opacity="1" fill-rule="nonzero"/></g><g clip-path="url(#87dff3d981)"><path fill="#00fff5" d="M 62.851562 62.851562 L 79.246094 62.851562 L 79.246094 54.917969 L 54.917969 54.917969 L 54.917969 79.246094 L 62.851562 79.246094 Z M 62.851562 62.851562 " fill-opacity="1" fill-rule="nonzero"/></g><g clip-path="url(#969161f616)"><path fill="#00fff5" d="M 312.484375 312.484375 L 296.089844 312.484375 L 296.089844 320.417969 L 320.417969 320.417969 L 320.417969 296.089844 L 312.484375 296.089844 Z M 312.484375 312.484375 " fill-opacity="1" fill-rule="nonzero"/></g><g clip-path="url(#2bc777cdf4)"><path fill="#00fff5" d="M 62.851562 312.484375 L 62.851562 296.089844 L 54.917969 296.089844 L 54.917969 320.417969 L 79.246094 320.417969 L 79.246094 312.484375 Z M 62.851562 312.484375 " fill-opacity="1" fill-rule="nonzero"/></g><g clip-path="url(#c29eeade31)"><g clip-path="url(#611aefea35)"><g clip-path="url(#f4695c4b22)"><path fill="#00adb5" d="M 352.421875 199.332031 L 358.03125 204.941406 L 204.699219 358.273438 L 199.089844 352.660156 Z M 352.421875 199.332031 " fill-opacity="1" fill-rule="nonzero"/></g></g></g><g clip-path="url(#9f8cc2a1cb)"><g clip-path="url(#5ce74f5199)"><g clip-path="url(#95bc62a331)"><path fill="#00adb5" d="M 170.292969 17.203125 L 175.902344 22.8125 L 22.574219 176.144531 L 16.964844 170.535156 Z M 170.292969 17.203125 " fill-opacity="1" fill-rule="nonzero"/></g></g></g><g clip-path="url(#ac826705c1)"><g clip-path="url(#02d1a6f5d3)"><g clip-path="url(#3f24242909)"><path fill="#00adb5" d="M 204.699219 17.203125 L 358.03125 170.535156 L 352.421875 176.144531 L 199.089844 22.8125 Z M 204.699219 17.203125 " fill-opacity="1" fill-rule="nonzero"/></g></g></g><g clip-path="url(#7f8462c496)"><g clip-path="url(#96c1fdb3c1)"><g clip-path="url(#1495408c1a)"><path fill="#00adb5" d="M 22.574219 199.332031 L 175.902344 352.660156 L 170.292969 358.273438 L 16.964844 204.941406 Z M 22.574219 199.332031 " fill-opacity="1" fill-rule="nonzero"/></g></g></g><g clip-path="url(#e6eed72c86)"><g clip-path="url(#d8a9defa5a)"><g clip-path="url(#a9071f840e)"><path fill="#00adb5" d="M 364.015625 187.738281 L 352.421875 199.332031 L 358.03125 204.941406 L 375.234375 187.738281 L 358.03125 170.535156 L 352.421875 176.144531 Z M 364.015625 187.738281 " fill-opacity="1" fill-rule="nonzero"/></g></g></g><g clip-path="url(#7a98ee4ce9)"><g clip-path="url(#0547072603)"><g clip-path="url(#0c3bbc46dd)"><path fill="#00adb5" d="M 187.496094 11.21875 L 199.089844 22.8125 L 204.699219 17.203125 L 187.496094 0 L 170.292969 17.203125 L 175.902344 22.8125 Z M 187.496094 11.21875 " fill-opacity="1" fill-rule="nonzero"/></g></g></g><g clip-path="url(#4d0387a626)"><g clip-path="url(#03c0908886)"><g clip-path="url(#708d238be9)"><path fill="#00adb5" d="M 187.496094 364.253906 L 175.902344 352.660156 L 170.292969 358.273438 L 187.496094 375.476562 L 204.699219 358.273438 L 199.089844 352.660156 Z M 187.496094 364.253906 " fill-opacity="1" fill-rule="nonzero"/></g></g></g><g clip-path="url(#bb905005db)"><g clip-path="url(#4dd6b2129d)"><g clip-path="url(#80a7a4c850)"><path fill="#00adb5" d="M 10.980469 187.738281 L 22.574219 176.144531 L 16.964844 170.535156 L -0.238281 187.738281 L 16.964844 204.941406 L 22.574219 199.332031 Z M 10.980469 187.738281 " fill-opacity="1" fill-rule="nonzero"/></g></g></g><g fill="#00fff5" fill-opacity="1"><g transform="translate(124.122886, 247.499984)"><g><path d="M 31.203125 1.203125 C 23.796875 1.203125 17.789062 -1.242188 13.1875 -6.140625 C 8.59375 -11.046875 6.296875 -17.445312 6.296875 -25.34375 L 6.296875 -28.796875 C 6.296875 -29.796875 6.796875 -30.296875 7.796875 -30.296875 L 15.15625 -30.296875 C 16.15625 -30.296875 16.65625 -29.796875 16.65625 -28.796875 L 16.65625 -25.796875 C 16.65625 -20.492188 18.003906 -16.21875 20.703125 -12.96875 C 23.398438 -9.71875 26.898438 -8.09375 31.203125 -8.09375 C 35.398438 -8.09375 38.898438 -9.644531 41.703125 -12.75 C 44.503906 -15.851562 45.90625 -19.953125 45.90625 -25.046875 C 45.90625 -28.453125 45.226562 -31.378906 43.875 -33.828125 C 42.519531 -36.273438 40.769531 -38.421875 38.625 -40.265625 C 36.476562 -42.117188 32.90625 -44.945312 27.90625 -48.75 C 22.90625 -52.445312 18.953125 -55.617188 16.046875 -58.265625 C 13.148438 -60.921875 10.773438 -64.097656 8.921875 -67.796875 C 7.078125 -71.492188 6.15625 -75.84375 6.15625 -80.84375 C 6.15625 -88.644531 8.40625 -94.820312 12.90625 -99.375 C 17.40625 -103.925781 23.253906 -106.203125 30.453125 -106.203125 C 38.046875 -106.203125 44.117188 -103.722656 48.671875 -98.765625 C 53.222656 -93.816406 55.5 -87.242188 55.5 -79.046875 L 55.5 -75.296875 C 55.5 -74.296875 55 -73.796875 54 -73.796875 L 46.5 -73.796875 C 45.5 -73.796875 45 -74.296875 45 -75.296875 L 45 -79.203125 C 45 -84.503906 43.671875 -88.78125 41.015625 -92.03125 C 38.367188 -95.28125 34.847656 -96.90625 30.453125 -96.90625 C 26.453125 -96.90625 23.148438 -95.476562 20.546875 -92.625 C 17.953125 -89.769531 16.65625 -85.742188 16.65625 -80.546875 C 16.65625 -77.453125 17.226562 -74.726562 18.375 -72.375 C 19.519531 -70.019531 21.242188 -67.789062 23.546875 -65.6875 C 25.847656 -63.59375 29.25 -60.847656 33.75 -57.453125 C 39.75 -53.046875 44.222656 -49.46875 47.171875 -46.71875 C 50.117188 -43.96875 52.394531 -40.96875 54 -37.71875 C 55.601562 -34.46875 56.40625 -30.546875 56.40625 -25.953125 C 56.40625 -17.753906 54.050781 -11.175781 49.34375 -6.21875 C 44.644531 -1.269531 38.597656 1.203125 31.203125 1.203125 Z M 31.203125 1.203125 "/></g></g></g><g fill="#00fff5" fill-opacity="1"><g transform="translate(186.522903, 247.499984)"><g><path d="M 58.34375 -97.203125 C 58.34375 -96.203125 57.84375 -95.703125 56.84375 -95.703125 L 22.046875 -95.703125 C 21.648438 -95.703125 21.453125 -95.5 21.453125 -95.09375 L 21.453125 -57.90625 C 21.453125 -57.5 21.648438 -57.296875 22.046875 -57.296875 L 43.953125 -57.296875 C 44.953125 -57.296875 45.453125 -56.796875 45.453125 -55.796875 L 45.453125 -49.34375 C 45.453125 -48.34375 44.953125 -47.84375 43.953125 -47.84375 L 22.046875 -47.84375 C 21.648438 -47.84375 21.453125 -47.644531 21.453125 -47.25 L 21.453125 -9.90625 C 21.453125 -9.5 21.648438 -9.296875 22.046875 -9.296875 L 56.84375 -9.296875 C 57.84375 -9.296875 58.34375 -8.796875 58.34375 -7.796875 L 58.34375 -1.5 C 58.34375 -0.5 57.84375 0 56.84375 0 L 12.296875 0 C 11.296875 0 10.796875 -0.5 10.796875 -1.5 L 10.796875 -103.5 C 10.796875 -104.5 11.296875 -105 12.296875 -105 L 56.84375 -105 C 57.84375 -105 58.34375 -104.5 58.34375 -103.5 Z M 58.34375 -97.203125 "/></g></g></g></svg>